<?xml version="1.0" encoding="UTF-8"?>
<svg id="Layer_1" data-name="Layer 1" xmlns="http://www.w3.org/2000/svg" viewBox="0 0 2092.15 1503.41">
  <defs>
    <style>
      .cls-1 {
        fill: #e6e8ec;
      }

      .cls-1, .cls-2, .cls-3, .cls-4, .cls-5, .cls-6, .cls-7 {
        stroke-width: 0px;
      }

      .cls-2 {
        fill: #010302;
      }

      .cls-3 {
        fill: #3d8a57;
      }

      .cls-4 {
        fill: #3495d2;
      }

      .cls-5 {
        fill: #2baa9b;
      }

      .cls-6 {
        fill: #c24960;
      }

      .cls-7 {
        fill: #662e7a;
      }
    </style>
  </defs>
  <g>
    <rect class="cls-3" width="2092.15" height="1503.41"/>
    <circle class="cls-4" cx="1046.07" cy="751.7" r="606.58"/>
  </g>
  <g>
    <path class="cls-2" d="m944.47,443.08c112.97,0,225.94,0,338.91,0,1.82,0,3.69-.26,5.46.05,5.31.93,5.64-2.01,5.84-6.23.75-16.3,5.54-31.45,13.83-45.52,21.03-35.71,60.36-55.18,100.82-49.68,44,5.98,76.89,36.51,86.88,78.23,13.17,55.01-22.87,111.64-78.69,122.94-5.77,1.17-6.46,3.32-6.45,8.22.11,90.8.13,181.6-.05,272.41,0,4.9,1.92,7.63,5.36,10.59,38.38,32.98,64.99,73.82,75.82,123.22,19.34,88.23-4.24,164.38-69.79,226.65-34.31,32.6-75.85,51.98-122.59,58.7-128.78,18.49-238.88-68.21-262.56-182.73-1.97-9.53-3.22-19.12-4.25-28.75-.4-3.71-1.73-5.44-5.63-4.94-2.09.27-4.25.05-6.37.05-138.18,0-276.35,0-414.53,0-1.82,0-3.68-.23-5.46.04-5.22.78-6.5-1.4-6.47-6.47.22-33.1.11-66.2.11-99.3,0-154.88,0-309.76,0-464.64,0-1.21-.02-2.43,0-3.64.19-10.62-1.49-9.15,9.06-9.16,113.58-.04,227.16-.02,340.74-.02Zm391.15,81.68c-27.6,27.63-54.74,55.03-82.23,82.07-4.84,4.76-6.26,8.68-4.3,15.49,7.4,25.68-12.52,52.69-39.15,54.01-30.86,1.52-53.38-26.7-44.59-56.33,1.4-4.7,1.3-7.57-2.48-10.97-6.99-6.29-13.55-13.07-20.03-19.9-3.03-3.2-5.52-4.3-10.13-2.49-8.05,3.15-16.8,3.77-24.9.3-5.96-2.55-9.2-.24-13.11,3.73-19.82,20.12-39.74,40.16-59.97,59.87-4.83,4.7-6.34,8.61-4.35,15.48,7.44,25.68-12.44,52.85-39.08,54.01-19.16.83-33.65-7.54-42.16-24.54-8.2-16.39-6.23-32.63,5.48-46.74,12.19-14.69,28.18-19.63,46.54-13.97,4.98,1.54,7.56.58,10.88-2.78,20.27-20.53,40.57-41.05,61.28-61.13,4.98-4.83,5.98-8.86,4.11-15.55-8.68-30.94,20.84-60.66,51.9-52.71,25.3,6.47,39.36,30.41,31.83,55.23-1.48,4.88-.9,7.62,2.66,10.92,7.12,6.61,13.93,13.56,20.65,20.58,2.62,2.74,4.72,3.57,8.62,2.01,9.02-3.61,18.48-3.54,27.57-.14,3.64,1.36,5.87,1.27,8.72-1.6,27.38-27.6,54.88-55.08,82.46-82.48,2.46-2.44,2.64-4.15.6-6.79-4.48-5.77-7.63-12.34-10.46-19.02-3.83-9.03-3.73-9.08-13.24-9.08-218.38,0-436.77,0-655.15,0-1.82,0-3.65.12-5.46-.02-2.97-.24-4.64.64-4.31,3.99.18,1.8.03,3.64.03,5.46,0,168.57,0,337.14,0,505.71,0,1.82.13,3.65-.02,5.46-.25,2.99.68,4.62,4.01,4.3,1.8-.18,3.64-.03,5.46-.03,130,0,259.99,0,389.99,0,1.52,0,3.06-.15,4.55.03,3.32.4,5.12-.82,5.44-4.28.77-8.05,1.65-16.09,2.56-24.91-8.96,0-17.43-.29-25.86.11-5.24.25-7.27-.68-7.23-6.76.29-53.76.3-107.52,0-161.28-.04-6.52,2.37-7.18,7.77-7.13,23.69.24,47.38.06,71.07.12,10.23.03,8.74-1.24,8.78,8.53.08,18.09.02,36.18.02,54.53,86.37-84.15,183.06-100.16,291.21-47.73.98-1.82.35-4.24.35-6.56.04-83.22.03-166.45.03-249.67,0-1.21-.08-2.44.01-3.64.24-3.17-.66-4.67-4.32-5.3-15.12-2.58-28.83-8.76-42.06-18.42Zm-70.45,691.31c12.92.3,25.48-1.27,38.03-3.69,52.93-10.21,95.02-37.42,127.3-80.35,3.27-4.35,3.73-6.66-1.73-9.62-13.55-7.35-26.84-15.2-40.03-23.18-3.94-2.39-6.43-2.25-9,1.64-4.72,7.15-10.93,13.05-17.29,18.64-35.05,30.81-75.83,43.21-121.88,35.42-36.65-6.2-66.57-24.67-89.53-54.01-2.88-3.68-5.09-4.06-9.01-1.71-12.96,7.78-26.13,15.21-39.2,22.81-6.82,3.96-6.91,4.08-2.01,10.55,41.25,54.54,96.39,81.71,164.34,83.49Zm-183.06-114.94c15.1-8.72,29.51-17.04,43.91-25.37,6.95-4.02,6.98-4.06,3.91-11.9-12.01-30.66-14.04-62.12-3.87-93.31,18.86-57.85,58.9-92.21,119.02-102.71,3.17-.55,5.89-.44,5.85-4.91-.15-17-.09-34-.04-51,0-3.12-1.21-4.72-4.34-3.81-6.16,1.78-12.57,1.53-18.84,2.81-65.3,13.36-113.55,49.59-144.57,108.29-20.6,38.99-26.36,80.87-19.78,124.28,2.99,19.75,8.78,38.85,18.77,57.63Zm366.36-.22c1.28-2.35,2.09-3.63,2.71-4.99,17.52-38.86,22.82-79.18,14.93-121.23-10.22-54.41-38.3-97.47-82.9-129.66-29.51-21.3-62.93-32.98-99.1-36.92-4.39-.48-4.21,2.11-4.21,4.95,0,13.96-.08,27.91.05,41.87.04,3.86-1.46,8.27,1.06,11.45,2.16,2.73,6.33.84,9.5,1.71,2.04.56,4.1,1.01,6.16,1.47,64.93,14.49,112.85,71.24,114.32,140.19.42,19.51-3.53,38.45-10.95,56.54-1.53,3.73-1.56,5.69,2.39,7.9,15.3,8.58,30.36,17.57,46.04,26.71Zm-182.7-205.77c-63.76-.16-116.65,52.13-116.97,115.65-.32,64.22,52.12,117.27,116.12,117.45,64.11.18,116.99-52.51,116.98-116.58,0-63.7-52.49-116.36-116.12-116.52Zm203.72-451.76c1.01-39.62-33.13-73.05-72.16-73.42-40.19-.38-73.74,33.64-73.89,72.8-.15,39.72,33.5,73.05,72.36,73.43,40.02.39,74.41-33.44,73.69-72.81Zm-437.46,437.2c0,17.58.14,35.16-.09,52.74-.06,4.46,1.48,5.4,5.71,5.7,5.28.37,7.57-1.69,8.98-6.4,2.86-9.56,7.12-18.59,11.74-27.41,2.04-3.9,3.01-7.71,2.97-12.08-.15-16.37.15-32.74-.16-49.1-.14-7.13,3.41-16.56-1.62-20.79-4.77-4.01-13.96-.6-21.17-1.21-5.37-.46-6.53,1.78-6.46,6.72.26,17.27.1,34.55.1,51.83Zm87.58-350.49c-9.5-.02-15.16,5.68-15.11,15.2.05,9.1,5.55,14.73,14.52,14.89,9.74.17,15.47-5.26,15.57-14.76.09-9.59-5.49-15.31-14.98-15.33Zm87.66,117.12c8.19-.12,14.26-6.2,14.36-14.39.1-8.61-6.23-14.93-14.85-14.8-8.22.12-14.25,6.17-14.35,14.39-.1,8.61,6.24,14.93,14.84,14.81Zm-218.74,14.54c-8.26-.09-14.49,5.77-14.8,13.94-.33,8.62,5.84,15.16,14.39,15.26,8.59.1,14.93-6.26,14.81-14.86-.12-8.2-6.19-14.25-14.4-14.34Z"/>
    <path class="cls-1" d="m1335.62,524.75c13.23,9.66,26.94,15.84,42.06,18.42,3.66.62,4.56,2.13,4.32,5.3-.09,1.21-.01,2.43-.01,3.64,0,83.22,0,166.45-.03,249.67,0,2.32.62,4.74-.35,6.56-108.15-52.43-204.84-36.42-291.21,47.73,0-18.35.06-36.44-.02-54.53-.04-9.77,1.44-8.5-8.78-8.53-23.69-.06-47.38.12-71.07-.12-5.4-.05-7.81.61-7.77,7.13.31,53.76.3,107.52,0,161.28-.03,6.08,1.99,7.01,7.23,6.76,8.43-.4,16.89-.11,25.86-.11-.92,8.82-1.8,16.86-2.56,24.91-.33,3.46-2.13,4.68-5.44,4.28-1.5-.18-3.03-.03-4.55-.03-130,0-259.99,0-389.99,0-1.82,0-3.66-.15-5.46.03-3.33.33-4.25-1.3-4.01-4.3.15-1.81.02-3.64.02-5.46,0-168.57,0-337.14,0-505.71,0-1.82.15-3.66-.03-5.46-.33-3.35,1.34-4.23,4.31-3.99,1.81.15,3.64.02,5.46.02,218.38,0,436.77,0,655.15,0,9.51,0,9.42.04,13.24,9.08,2.83,6.68,5.98,13.25,10.46,19.02,2.05,2.64,1.86,4.34-.6,6.79-27.59,27.39-55.08,54.88-82.46,82.48-2.85,2.87-5.08,2.96-8.72,1.6-9.09-3.4-18.55-3.47-27.57.14-3.9,1.56-6,.73-8.62-2.01-6.72-7.02-13.53-13.97-20.65-20.58-3.56-3.3-4.14-6.04-2.66-10.92,7.53-24.82-6.52-48.76-31.83-55.23-31.06-7.95-60.57,21.77-51.9,52.71,1.87,6.68.87,10.72-4.11,15.55-20.71,20.09-41,40.6-61.28,61.13-3.33,3.37-5.9,4.32-10.88,2.78-18.36-5.66-34.35-.72-46.54,13.97-11.72,14.11-13.69,30.35-5.48,46.74,8.51,17,22.99,25.37,42.16,24.54,26.64-1.16,46.52-28.33,39.08-54.01-1.99-6.87-.48-10.77,4.35-15.48,20.24-19.7,40.15-39.74,59.97-59.87,3.91-3.97,7.15-6.27,13.11-3.73,8.1,3.46,16.85,2.85,24.9-.3,4.62-1.81,7.1-.7,10.13,2.49,6.47,6.83,13.04,13.61,20.03,19.9,3.78,3.4,3.87,6.27,2.48,10.97-8.79,29.63,13.74,57.85,44.59,56.33,26.64-1.32,46.55-28.33,39.15-54.01-1.96-6.81-.54-10.73,4.3-15.49,27.49-27.04,54.63-54.45,82.23-82.07Zm-361.87,327.49c0-37.05-.1-74.09.11-111.14.03-5.1-1.3-6.61-6.49-6.55-24.9.27-49.8.26-74.7,0-5.13-.05-6.53,1.36-6.52,6.51.17,73.49.16,146.97,0,220.46-.01,5.1,1.29,6.61,6.48,6.55,24.59-.27,49.2-.32,73.79.02,5.94.08,7.51-1.48,7.46-7.45-.29-36.13-.14-72.27-.14-108.41Zm-320.76,42.99c0,22.17.08,44.33-.07,66.49-.03,4.26.41,6.43,5.73,6.37,25.5-.31,51.01-.26,76.51-.03,4.69.04,5.4-1.66,5.38-5.79-.13-44.94-.15-89.88.03-134.81.02-4.66-1.63-5.43-5.77-5.4-25.2.17-50.4.25-75.6-.04-5.4-.06-6.36,1.89-6.31,6.71.22,22.16.1,44.33.1,66.49Zm204.12,14.39c0-17.61-.14-35.22.1-52.83.06-4.41-1.21-5.61-5.6-5.58-25.5.2-51.01.2-76.51,0-4.42-.04-5.59,1.23-5.57,5.6.17,35.22.17,70.44,0,105.66-.02,4.41,1.21,5.61,5.59,5.58,25.5-.2,51.01-.2,76.51,0,4.42.04,5.63-1.22,5.57-5.6-.24-17.61-.1-35.22-.1-52.83Zm-44.16-379.07c13.66,0,27.33,0,40.99,0,18.52,0,37.05-.17,55.56.11,4.82.07,6.4-1.31,6.01-6.08-.4-4.83-.08-9.71-.09-14.57q-.02-8.61-8.73-8.62c-62.24,0-124.49,0-186.73,0-1.52,0-3.05.14-4.55-.02-3.2-.34-4.25,1.02-4.16,4.16.19,6.07.49,12.19-.08,18.2-.55,5.81,1.49,7,7.03,6.95,31.58-.28,63.15-.14,94.73-.14Zm-.28,58.32c27.63,0,55.26.06,82.89-.05,6.31-.03,14.61,2.73,18.42-1.04,4.23-4.19,1.3-12.61,1.37-19.17.11-10.4,1.5-8.87-9.28-8.88-57.69-.06-115.38-.06-173.07.01-6.92,0-16.05-2.92-20.18,1.11-4.61,4.5-.65,13.8-1.6,20.91-.86,6.44,2.11,7.25,7.62,7.21,31.27-.23,62.55-.11,93.82-.11Zm.88,29.16c-31.88,0-63.76.09-95.64-.09-4.8-.03-7.24.86-6.69,6.31.46,4.51.04,9.1.1,13.65.16,10.7-1.5,9.26,8.96,9.27,53.14.05,106.27.02,159.41.02,9.72,0,19.44-.22,29.15.09,4.82.16,7.22-.86,6.69-6.31-.46-4.81-.06-9.71-.11-14.56-.1-9.29,1.25-8.36-8.05-8.37-31.27-.03-62.55-.01-93.82-.01Zm-1.11,87.48c27.33,0,54.65.11,81.98-.07,6.85-.05,15.94,3.09,19.91-1.53,3.34-3.89,1.07-12.7,1.08-19.33.01-9.28,1.1-8.21-8.19-8.21-57.99-.03-115.99-.08-173.98.07-7.15.02-14.41-1.37-21.48.95-.15,6.94.06,13.9-.56,20.8-.54,5.98,1.46,7.53,7.42,7.47,31.27-.31,62.55-.15,93.82-.15Zm-130.29-189.18q0-14.94-15.13-14.94-14.03,0-14.03,14.22,0,14.94,15.13,14.94,14.03,0,14.03-14.22Zm-29.16,57.12q0,15.42,15.56,15.42,13.6,0,13.6-13.74,0-15.42-15.56-15.42-13.6,0-13.6,13.74Zm14.22,73.74q14.94,0,14.94-15.13,0-14.03-14.22-14.03-14.94,0-14.94,15.13,0,14.03,14.22,14.03Zm14.94,43.85q0-14.69-14.47-14.69-14.69,0-14.69,14.47,0,14.69,14.47,14.69,14.69,0,14.69-14.47Z"/>
    <path class="cls-5" d="m1265.17,1216.07c-67.95-1.79-123.09-28.96-164.34-83.49-4.9-6.47-4.81-6.59,2.01-10.55,13.07-7.6,26.24-15.03,39.2-22.81,3.92-2.35,6.13-1.97,9.01,1.71,22.95,29.34,52.88,47.82,89.53,54.01,46.05,7.79,86.83-4.62,121.88-35.42,6.36-5.59,12.57-11.49,17.29-18.64,2.57-3.89,5.06-4.02,9-1.64,13.19,7.98,26.48,15.83,40.03,23.18,5.45,2.96,5,5.27,1.73,9.62-32.28,42.93-74.37,70.14-127.3,80.35-12.54,2.42-25.11,3.99-38.03,3.69Z"/>
    <path class="cls-6" d="m1082.12,1101.13c-9.99-18.78-15.78-37.88-18.77-57.63-6.57-43.41-.82-85.29,19.78-124.28,31.02-58.71,79.27-94.94,144.57-108.29,6.27-1.28,12.68-1.03,18.84-2.81,3.13-.9,4.35.69,4.34,3.81-.05,17-.11,34,.04,51,.04,4.47-2.68,4.35-5.85,4.91-60.12,10.51-100.15,44.86-119.02,102.71-10.17,31.19-8.14,62.64,3.87,93.31,3.07,7.84,3.04,7.88-3.91,11.9-14.4,8.34-28.81,16.65-43.91,25.37Z"/>
    <path class="cls-7" d="m1448.48,1100.91c-15.68-9.14-30.74-18.14-46.04-26.71-3.95-2.21-3.92-4.18-2.39-7.9,7.42-18.09,11.36-37.03,10.95-56.54-1.47-68.95-49.39-125.71-114.32-140.19-2.06-.46-4.13-.91-6.16-1.47-3.17-.87-7.34,1.02-9.5-1.71-2.52-3.17-1.02-7.59-1.06-11.45-.13-13.96-.05-27.91-.05-41.87,0-2.84-.19-5.43,4.21-4.95,36.17,3.93,69.59,15.61,99.1,36.92,44.59,32.19,72.68,75.25,82.9,129.66,7.9,42.05,2.59,82.36-14.93,121.23-.62,1.37-1.43,2.65-2.71,4.99Z"/>
    <path class="cls-1" d="m1265.77,895.14c63.64.16,116.12,52.82,116.12,116.52,0,64.07-52.87,116.76-116.98,116.58-64-.18-116.44-53.23-116.12-117.45.32-63.52,53.21-115.82,116.97-115.65Zm87.13,117.19c.12-48.71-38.81-88.11-87.14-88.19-48.19-.08-87.78,38.83-87.98,86.46-.2,48.8,38.62,88.49,86.7,88.66,48.72.17,88.3-38.74,88.42-86.92Z"/>
    <path class="cls-7" d="m1469.49,443.38c.72,39.37-33.68,73.2-73.69,72.81-38.86-.38-72.51-33.71-72.36-73.43.15-39.16,33.69-73.18,73.89-72.8,39.03.37,73.18,33.8,72.16,73.42Z"/>
    <path class="cls-5" d="m1032.03,880.58c0-17.28.16-34.56-.1-51.83-.07-4.94,1.09-7.18,6.46-6.72,7.2.61,16.39-2.8,21.17,1.21,5.03,4.23,1.49,13.66,1.62,20.79.31,16.36,0,32.74.16,49.1.04,4.37-.92,8.18-2.97,12.08-4.61,8.81-8.88,17.84-11.74,27.41-1.41,4.71-3.7,6.76-8.98,6.4-4.24-.29-5.77-1.24-5.71-5.7.23-17.58.09-35.16.09-52.74Z"/>
    <path class="cls-6" d="m1119.61,530.09c9.49.02,15.08,5.74,14.98,15.33-.09,9.5-5.82,14.93-15.57,14.76-8.98-.16-14.47-5.79-14.52-14.89-.05-9.52,5.61-15.22,15.11-15.2Z"/>
    <path class="cls-7" d="m1207.27,647.21c-8.6.12-14.94-6.2-14.84-14.81.1-8.22,6.13-14.27,14.35-14.39,8.61-.12,14.95,6.2,14.85,14.8-.1,8.19-6.17,14.28-14.36,14.39Z"/>
    <path class="cls-7" d="m988.53,661.76c8.21.09,14.28,6.14,14.4,14.34.13,8.6-6.21,14.96-14.81,14.86-8.55-.1-14.72-6.64-14.39-15.26.31-8.16,6.54-14.03,14.8-13.94Z"/>
    <path class="cls-2" d="m973.75,852.24c0,36.14-.15,72.27.14,108.41.05,5.96-1.53,7.53-7.46,7.45-24.59-.35-49.19-.29-73.79-.02-5.19.06-6.49-1.45-6.48-6.55.16-73.49.16-146.97,0-220.46-.01-5.15,1.39-6.56,6.52-6.51,24.9.26,49.8.27,74.7,0,5.19-.06,6.52,1.45,6.49,6.55-.21,37.05-.11,74.09-.11,111.14Zm-29.12-.83c0-22.44.13-44.88-.08-67.32-.06-6.55,2.92-14.91-1.47-19.15-3.95-3.82-12.13-1.03-18.43-1.09-10.3-.11-9.24-1.15-9.25,9.13-.03,52.16-.01,104.31-.01,156.47,0,1.21.13,2.44-.02,3.64-.51,4.17.84,6.13,5.45,5.83,5.44-.35,10.95-.46,16.36.02,5.93.53,7.67-1.45,7.59-7.47-.33-26.68-.14-53.37-.14-80.05Z"/>
    <path class="cls-2" d="m652.99,895.23c0-22.17.12-44.33-.1-66.49-.05-4.82.91-6.78,6.31-6.71,25.2.29,50.4.21,75.6.04,4.14-.03,5.79.74,5.77,5.4-.18,44.94-.16,89.87-.03,134.81.01,4.12-.7,5.83-5.38,5.79-25.5-.24-51.01-.29-76.51.03-5.32.07-5.76-2.11-5.73-6.37.15-22.16.07-44.33.07-66.49Zm58.36-.16c0-7.27.27-14.55-.08-21.8-.34-7.14,3.34-16.53-1.59-20.81-4.72-4.1-13.9-.86-21.12-1.18-.6-.03-1.22.06-1.82,0-3.54-.39-4.7,1.22-4.69,4.7.1,26.04.09,52.09,0,78.13-.01,3.44,1.07,4.89,4.66,4.78,6.35-.19,12.73-.29,19.07.03,4.41.22,5.73-1.35,5.64-5.69-.24-12.71-.09-25.44-.08-38.16Z"/>
    <path class="cls-2" d="m857.11,909.62c0,17.61-.14,35.22.1,52.83.06,4.38-1.15,5.64-5.57,5.6-25.5-.2-51.01-.2-76.51,0-4.38.03-5.62-1.17-5.59-5.58.18-35.22.17-70.44,0-105.66-.02-4.37,1.15-5.64,5.57-5.6,25.5.2,51.01.2,76.51,0,4.38-.03,5.66,1.17,5.6,5.58-.25,17.61-.1,35.22-.1,52.83Zm-29.12.49c0-7.9-.27-15.8.1-23.68.23-4.92-1.66-6.34-6.28-6.07-5.45.32-10.95.35-16.39,0-4.99-.33-6.99,1.16-6.79,6.5.39,10.01-.01,20.04.15,30.06.11,6.93-2.96,16.11,1.17,20.21,4.95,4.92,14.38,1,21.83,1.75,4.57.46,6.56-1.01,6.31-5.99-.38-7.57-.1-15.18-.1-22.77Z"/>
    <path class="cls-2" d="m812.95,530.56c-31.58,0-63.16-.14-94.73.14-5.54.05-7.58-1.14-7.03-6.95.57-6.02.26-12.14.08-18.2-.1-3.15.96-4.5,4.16-4.16,1.5.16,3.03.02,4.55.02,62.24,0,124.49,0,186.73,0q8.71,0,8.73,8.62c0,4.86-.31,9.74.09,14.57.39,4.77-1.2,6.15-6.01,6.08-18.52-.28-37.04-.11-55.56-.11-13.66,0-27.33,0-40.99,0Z"/>
    <path class="cls-2" d="m812.67,588.88c-31.27,0-62.55-.12-93.82.11-5.51.04-8.48-.77-7.62-7.21.94-7.11-3.01-16.42,1.6-20.91,4.13-4.03,13.26-1.11,20.18-1.11,57.69-.07,115.38-.07,173.07-.01,10.78.01,9.39-1.52,9.28,8.88-.07,6.56,2.86,14.99-1.37,19.17-3.81,3.77-12.11,1.01-18.42,1.04-27.63.11-55.26.05-82.89.05Z"/>
    <path class="cls-2" d="m813.55,618.03c31.27,0,62.55-.02,93.82.01,9.3,0,7.95-.92,8.05,8.37.05,4.86-.36,9.75.11,14.56.52,5.45-1.88,6.46-6.69,6.31-9.71-.32-19.43-.09-29.15-.09-53.14,0-106.27.03-159.41-.02-10.46-.01-8.8,1.43-8.96-9.27-.07-4.55.35-9.15-.1-13.65-.55-5.45,1.88-6.33,6.69-6.31,31.88.18,63.76.09,95.64.09Z"/>
    <path class="cls-2" d="m812.44,705.51c-31.27,0-62.55-.17-93.82.15-5.96.06-7.95-1.49-7.42-7.47.62-6.89.41-13.86.56-20.8,7.06-2.33,14.33-.93,21.48-.95,57.99-.15,115.99-.1,173.98-.07,9.28,0,8.2-1.06,8.19,8.21,0,6.63,2.26,15.44-1.08,19.33-3.97,4.62-13.06,1.48-19.91,1.53-27.33.18-54.65.07-81.98.07Z"/>
    <path class="cls-2" d="m682.15,516.34q0,14.22-14.03,14.22-15.13,0-15.13-14.94,0-14.22,14.03-14.22,15.13,0,15.13,14.94Z"/>
    <path class="cls-2" d="m652.99,573.46q0-13.74,13.6-13.74,15.56,0,15.56,15.42,0,13.74-13.6,13.74-15.56,0-15.56-15.42Z"/>
    <path class="cls-2" d="m667.21,647.19q-14.22,0-14.22-14.03,0-15.13,14.94-15.13,14.22,0,14.22,14.03,0,15.13-14.94,15.13Z"/>
    <path class="cls-2" d="m682.15,691.05q0,14.47-14.69,14.47-14.47,0-14.47-14.69,0-14.47,14.69-14.47,14.47,0,14.47,14.69Z"/>
    <path class="cls-2" d="m1352.91,1012.33c-.12,48.18-39.7,87.1-88.42,86.92-48.08-.17-86.9-39.87-86.7-88.66.2-47.63,39.79-86.54,87.98-86.46,48.33.08,87.26,39.49,87.14,88.19Zm-87.48,57.65c31.44-.06,57.94-26.43,58.2-57.92.25-31.76-26.55-58.7-58.35-58.65-31.8.05-58.55,27.08-58.2,58.8.35,31.46,26.97,57.82,58.36,57.76Z"/>
    <path class="cls-5" d="m944.63,851.41c0,26.68-.19,53.37.14,80.05.07,6.02-1.67,8-7.59,7.47-5.41-.49-10.93-.38-16.36-.02-4.61.3-5.96-1.67-5.45-5.83.15-1.2.02-2.42.02-3.64,0-52.16-.02-104.31.01-156.47,0-10.29-1.05-9.24,9.25-9.13,6.3.07,14.48-2.73,18.43,1.09,4.39,4.25,1.41,12.61,1.47,19.15.21,22.44.08,44.88.08,67.32Z"/>
    <path class="cls-5" d="m711.35,895.07c0,12.72-.16,25.44.09,38.16.08,4.34-1.23,5.91-5.64,5.69-6.34-.32-12.72-.23-19.07-.03-3.58.11-4.67-1.34-4.66-4.78.09-26.04.09-52.09,0-78.13-.01-3.48,1.15-5.08,4.69-4.7.6.07,1.21-.02,1.82,0,7.21.32,16.4-2.92,21.12,1.18,4.93,4.28,1.25,13.67,1.59,20.81.34,7.25.08,14.53.07,21.8Z"/>
    <path class="cls-6" d="m828,910.11c0,7.59-.28,15.2.1,22.77.25,4.97-1.75,6.44-6.31,5.99-7.44-.74-16.88,3.17-21.83-1.75-4.13-4.1-1.06-13.29-1.17-20.21-.16-10.02.23-20.05-.15-30.06-.21-5.34,1.79-6.83,6.79-6.5,5.44.36,10.94.32,16.39,0,4.63-.27,6.51,1.15,6.28,6.07-.36,7.88-.1,15.79-.1,23.68Z"/>
  </g>
</svg>