<?xml version="1.0" encoding="UTF-8"?>
<svg id="Layer_1" data-name="Layer 1" xmlns="http://www.w3.org/2000/svg" viewBox="0 0 2092.15 1503.41">
  <defs>
    <style>
      .cls-1 {
        fill: #181618;
      }

      .cls-1, .cls-2, .cls-3 {
        stroke-width: 10px;
      }

      .cls-1, .cls-2, .cls-3, .cls-4 {
        stroke: #181618;
        stroke-miterlimit: 10;
      }

      .cls-5 {
        fill: #22445e;
      }

      .cls-5, .cls-6 {
        stroke-width: 0px;
      }

      .cls-2 {
        fill: none;
      }

      .cls-3, .cls-4 {
        fill: #f0f8f8;
      }

      .cls-6 {
        fill: #c2485f;
      }

      .cls-4 {
        stroke-width: 40px;
      }
    </style>
  </defs>
  <rect class="cls-5" width="2092.15" height="1503.41"/>
  <circle class="cls-6" cx="1046.07" cy="751.7" r="606.58"/>
  <g>
    <rect class="cls-4" x="685.52" y="387.02" width="721.11" height="729.36" rx="38.65" ry="38.65"/>
    <g>
      <g>
        <rect class="cls-2" x="740.4" y="445.31" width="604.65" height="604.65"/>
        <line class="cls-2" x1="740.4" y1="949.18" x2="1345.04" y2="949.18"/>
        <line class="cls-2" x1="740.4" y1="848.41" x2="1345.04" y2="848.41"/>
        <line class="cls-2" x1="740.4" y1="747.63" x2="1345.04" y2="747.63"/>
        <line class="cls-2" x1="740.4" y1="646.86" x2="1345.04" y2="646.86"/>
        <line class="cls-2" x1="740.4" y1="546.08" x2="1345.04" y2="546.08"/>
        <line class="cls-2" x1="1244.27" y1="445.31" x2="1244.27" y2="1049.96"/>
        <line class="cls-2" x1="1143.49" y1="445.31" x2="1143.49" y2="1049.96"/>
        <line class="cls-2" x1="1042.72" y1="445.31" x2="1042.72" y2="1049.96"/>
        <line class="cls-2" x1="941.95" y1="445.31" x2="941.95" y2="1049.96"/>
        <line class="cls-2" x1="841.17" y1="445.31" x2="841.17" y2="1049.96"/>
      </g>
      <circle class="cls-3" cx="941.95" cy="747.63" r="40.85"/>
      <circle class="cls-3" cx="1042.72" cy="546.08" r="40.85"/>
      <circle class="cls-3" cx="1042.72" cy="747.63" r="40.85"/>
      <circle class="cls-1" cx="1042.72" cy="848.41" r="40.85"/>
      <circle class="cls-1" cx="1042.72" cy="949.18" r="40.85"/>
      <circle class="cls-3" cx="941.95" cy="848.41" r="40.85"/>
      <circle class="cls-1" cx="841.17" cy="848.41" r="40.85"/>
      <circle class="cls-3" cx="1143.49" cy="848.41" r="40.85"/>
      <circle class="cls-1" cx="1143.49" cy="747.63" r="40.85"/>
      <circle class="cls-1" cx="1143.49" cy="646.86" r="40.85"/>
      <circle class="cls-1" cx="1042.72" cy="646.86" r="40.85"/>
    </g>
  </g>
</svg>