<?xml version="1.0" encoding="UTF-8"?>
<svg id="Layer_1" data-name="Layer 1" xmlns="http://www.w3.org/2000/svg" viewBox="0 0 2092.15 1503.41">
  <defs>
    <style>
      .cls-1 {
        fill: #181618;
      }

      .cls-1, .cls-2, .cls-3, .cls-4 {
        stroke-width: 0px;
      }

      .cls-5 {
        fill: #3d8a57;
        stroke: #181618;
        stroke-miterlimit: 10;
        stroke-width: 40px;
      }

      .cls-2 {
        fill: #3495d2;
      }

      .cls-3 {
        fill: #22445e;
      }

      .cls-4 {
        fill: #f1f2f2;
      }
    </style>
  </defs>
  <rect class="cls-2" width="2092.15" height="1503.41"/>
  <circle class="cls-3" cx="1046.07" cy="751.7" r="606.58"/>
  <g>
    <rect class="cls-4" x="736.09" y="423.3" width="612.83" height="614.87"/>
    <path class="cls-1" d="m1386.36,400.14h-680.58c-9.89,0-17.9,7.98-17.9,17.87v676.16h716.39V418.01c0-9.89-8.03-17.87-17.9-17.87Zm-500.93,36.38c10.81,0,19.59,8.74,19.59,19.59s-8.78,19.56-19.59,19.56-19.6-8.74-19.6-19.56,8.76-19.59,19.6-19.59h0Zm-63.2-.03c10.8,0,19.59,8.78,19.59,19.62s-8.79,19.59-19.59,19.59-19.59-8.78-19.59-19.59,8.76-19.62,19.59-19.62h0Zm-63.23,0c10.84,0,19.6,8.78,19.6,19.62s-8.76,19.56-19.6,19.56-19.57-8.74-19.57-19.56,8.78-19.62,19.57-19.62h0Zm589.3,601.68h-604.45v-526.09h604.45v526.09h0Z"/>
    <path class="cls-5" d="m814.67,898.03h462.81c11.23,0,20.45-9.19,20.45-20.45v-294.5c0-11.23-9.22-20.42-20.45-20.42h-462.81c-11.23,0-20.45,9.19-20.45,20.42v294.5c0,11.26,9.22,20.45,20.45,20.45Zm170.76-230.2c33.49-33.45,87.82-33.45,121.32,0,33.48,33.49,33.48,87.83,0,121.32-33.5,33.45-87.82,33.49-121.32,0-33.49-33.48-33.49-87.83,0-121.32Z"/>
    <path class="cls-1" d="m794.22,971.04c0-8.75,7.06-15.77,15.74-15.77h194.36c-1.86,4.93-3.02,10.21-3.02,15.77s1.16,10.78,3.02,15.71h-194.36c-8.68,0-15.74-7.06-15.74-15.71h0Zm503.71,0c0,8.65-7.04,15.71-15.74,15.71h-194.34c1.86-4.93,3-10.18,3-15.71s-1.14-10.84-3-15.77h194.34c8.7,0,15.74,7.03,15.74,15.77Zm-228.74-15.77c3.08,4.52,4.86,9.92,4.86,15.77s-1.78,11.26-4.86,15.71c-5.01,7.41-13.5,12.27-23.12,12.27s-18.08-4.87-23.12-12.28c-3.17-4.63-4.86-10.1-4.87-15.71,0-5.85,1.81-11.26,4.87-15.77,5.04-7.38,13.5-12.24,23.12-12.24s18.11,4.87,23.12,12.24h0Z"/>
    <path class="cls-1" d="m1059.89,750.83l-38.37,22.42v-89.55l38.37,22.39,38.4,22.39-38.4,22.36Z"/>
  </g>
</svg>