<?xml version="1.0" encoding="UTF-8"?>
<svg id="Layer_1" data-name="Layer 1" xmlns="http://www.w3.org/2000/svg" viewBox="0 0 2092.15 1503.41">
  <defs>
    <style>
      .cls-1 {
        fill: #181618;
      }

      .cls-1, .cls-2, .cls-3, .cls-4, .cls-5, .cls-6 {
        stroke-width: 0px;
      }

      .cls-2 {
        fill: #010101;
      }

      .cls-3 {
        fill: #3d8a57;
      }

      .cls-7 {
        stroke-width: 40px;
      }

      .cls-7, .cls-8, .cls-9 {
        stroke: #181618;
        stroke-miterlimit: 10;
      }

      .cls-7, .cls-5 {
        fill: #f1f2f2;
      }

      .cls-8 {
        stroke-width: 32px;
      }

      .cls-8, .cls-9 {
        fill: #3495d2;
      }

      .cls-4 {
        fill: #652d7a;
      }

      .cls-9 {
        stroke-width: 10px;
      }

      .cls-6 {
        fill: #c2485f;
      }
    </style>
  </defs>
  <rect class="cls-4" width="2092.15" height="1503.41"/>
  <circle class="cls-3" cx="1046.07" cy="751.7" r="606.58"/>
  <g>
    <rect id="Rectangle-path" class="cls-7" x="779.76" y="878.93" width="295.68" height="206.08"/>
    <rect id="Rectangle-path-2" data-name="Rectangle-path" class="cls-1" x="898.03" y="1099.55" width="59.14" height="58.88"/>
    <rect id="Rectangle-path-3" data-name="Rectangle-path" class="cls-1" x="853.68" y="1143.71" width="147.84" height="29.44"/>
  </g>
  <g>
    <ellipse id="Oval" class="cls-8" cx="785.33" cy="1054.02" rx="47.9" ry="45.63"/>
    <path id="Shape" class="cls-8" d="m705.49,1220.84v-45.63c0-42,35.74-76.05,79.84-76.05s79.84,34.05,79.84,76.05v45.63h-159.67Z"/>
  </g>
  <path id="Rectangle-path-4" data-name="Rectangle-path" class="cls-7" d="m1000.19,311.29h325.08c10.43,0,18.88,8.42,18.88,18.8v468.18c0,10.38-8.45,18.8-18.88,18.8h-325.08c-10.43,0-18.88-8.42-18.88-18.8v-468.18c0-10.38,8.45-18.8,18.88-18.8Z"/>
  <path id="Rectangle-path-5" data-name="Rectangle-path" class="cls-1" d="m1015.01,672.57h295.45c18.61,0,33.7,15.02,33.7,33.55v77.4c0,18.53-15.09,33.55-33.7,33.55h-295.45c-18.61,0-33.7-15.02-33.7-33.55v-77.4c0-18.53,15.09-33.55,33.7-33.55Z"/>
  <path id="Shape-2" data-name="Shape" class="cls-6" d="m1053.88,791.16c-6.07.06-11.76-2.93-15.13-7.96-3.37-5.03-3.96-11.41-1.56-16.97.88-2.21,2.17-4.23,3.81-5.96,5.19-5.21,13.03-6.78,19.84-3.96,6.81,2.81,11.23,9.45,11.18,16.79.05,4.81-1.85,9.43-5.26,12.83s-8.06,5.29-12.88,5.24Z"/>
  <rect id="Rectangle-path-6" data-name="Rectangle-path" class="cls-5" x="1108.31" y="755.03" width="181.42" height="36.13"/>
  <g>
    <path id="Shape-3" data-name="Shape" class="cls-9" d="m1271.58,422.37c-2.37-.03-4.71-.52-6.89-1.45-2.2-.92-4.22-2.2-5.99-3.79-1.6-1.76-2.89-3.78-3.81-5.96-1.93-4.37-1.93-9.35,0-13.73.88-2.21,2.17-4.23,3.81-5.96,7.28-6.68,18.49-6.68,25.76,0,1.64,1.73,2.93,3.75,3.81,5.96,1.94,4.37,1.94,9.36,0,13.73-.92,2.19-2.21,4.2-3.81,5.96-1.76,1.59-3.79,2.88-5.99,3.79-2.18.93-4.52,1.42-6.89,1.45Z"/>
    <rect id="Rectangle-path-7" data-name="Rectangle-path" class="cls-9" x="1035.73" y="386.24" width="72.57" height="36.13"/>
    <path id="Shape-4" data-name="Shape" class="cls-9" d="m1271.58,494.63c-2.37-.03-4.71-.52-6.89-1.45-2.2-.92-4.22-2.2-5.99-3.79-5.19-5.17-6.7-12.97-3.81-19.69,1.65-4.54,5.24-8.11,9.8-9.75,6.76-2.83,14.56-1.33,19.77,3.79,3.32,3.46,5.19,8.04,5.26,12.83.05,4.81-1.85,9.43-5.26,12.83-3.41,3.4-8.06,5.29-12.88,5.24Z"/>
    <rect id="Rectangle-path-8" data-name="Rectangle-path" class="cls-9" x="1035.73" y="458.5" width="72.57" height="36.13"/>
    <path id="Shape-5" data-name="Shape" class="cls-9" d="m1271.58,566.88c-2.36.03-4.7-.4-6.89-1.26-2.17-1.05-4.18-2.38-5.99-3.97-5.19-5.17-6.7-12.97-3.81-19.69,1.65-4.54,5.24-8.11,9.8-9.75,6.76-2.83,14.56-1.33,19.77,3.79,3.32,3.46,5.19,8.04,5.26,12.83.06,2.37-.43,4.72-1.45,6.86-.92,2.19-2.21,4.2-3.81,5.96-1.8,1.59-3.82,2.93-5.99,3.97-2.19.86-4.54,1.29-6.89,1.26Z"/>
    <rect id="Rectangle-path-9" data-name="Rectangle-path" class="cls-9" x="1035.73" y="530.75" width="72.57" height="36.13"/>
    <rect id="Rectangle-path-10" data-name="Rectangle-path" class="cls-9" x="1144.59" y="386.24" width="72.57" height="36.13"/>
    <rect id="Rectangle-path-11" data-name="Rectangle-path" class="cls-9" x="1144.59" y="458.5" width="72.57" height="36.13"/>
    <rect id="Rectangle-path-12" data-name="Rectangle-path" class="cls-9" x="1144.59" y="530.75" width="72.57" height="36.13"/>
    <path id="Shape-6" data-name="Shape" class="cls-9" d="m1271.58,639.13c-2.36.03-4.7-.4-6.89-1.26-2.17-1.05-4.18-2.38-5.99-3.97-3.41-3.4-5.31-8.02-5.26-12.83.07-4.78,1.95-9.36,5.26-12.83,7.23-6.8,18.53-6.8,25.76,0,3.32,3.46,5.19,8.04,5.26,12.83.05,4.81-1.85,9.43-5.26,12.83-1.8,1.59-3.82,2.93-5.99,3.97-2.19.86-4.54,1.29-6.89,1.26Z"/>
    <rect id="Rectangle-path-13" data-name="Rectangle-path" class="cls-9" x="1035.73" y="603.01" width="72.57" height="36.13"/>
    <rect id="Rectangle-path-14" data-name="Rectangle-path" class="cls-9" x="1144.59" y="603.01" width="72.57" height="36.13"/>
  </g>
  <path class="cls-2" d="m1216.9,883.44c.64-.82,1.6-1.29,2.63-1.29s2,.48,2.63,1.29l62.54,81.34c.46.59.69,1.31.69,2.02s-.22,1.41-.66,2c-.9,1.18-2.48,1.63-3.87,1.08l-41.41-16.35-.06,21.05s-.11,2.02-.35,4.82h.35c.04,1.77.48,42.48-27.42,70.92-17.15,17.49-40.54,26.36-69.48,26.36v-39.71c18.14,0,31.59-4.72,41.14-14.46,13.59-13.85,15.69-34.23,16-40.44v-28.53l-41.41,16.35c-1.38.55-2.96.12-3.86-1.08-.9-1.19-.9-2.84.01-4.02l62.54-81.34Z"/>
  <path class="cls-2" d="m845.19,810.57c-.64.82-1.6,1.29-2.63,1.29s-2-.48-2.63-1.29l-62.54-81.34c-.46-.59-.69-1.31-.69-2.02s.22-1.41.66-2c.9-1.18,2.48-1.63,3.87-1.08l41.41,16.35.06-21.05s.11-2.02.35-4.82h-.35c-.04-1.77-.48-42.48,27.42-70.92,17.15-17.49,40.54-26.36,69.48-26.36v39.71c-18.14,0-31.59,4.72-41.14,14.46-13.59,13.85-15.69,34.23-16,40.44v28.53s41.41-16.35,41.41-16.35c1.38-.55,2.96-.12,3.86,1.08.9,1.19.9,2.84-.01,4.02l-62.54,81.34Z"/>
</svg>